<svg xmlns="http://www.w3.org/2000/svg" xmlns:xlink="http://www.w3.org/1999/xlink" version="1.1" id="Layer_1" x="0px" y="0px" viewBox="0 0 28 28" xml:space="preserve">
  <defs>
    <style>
      g {
        display: none;
      }
      g:target,
      g:target * {
        display: inline;
      }
    </style>
  </defs>

  <g id="checkbox_normal">
    <path fill="#ffffff" d="M0,2.99649048 C0,1.34157448 1.3504982,0 2.99649048,0 L25.0035095,0 C26.6584255,0 28,1.3504982 28,2.99649048 L28,25.0035095 C28,26.6584255 26.6495018,28 25.0035095,28 L2.99649048,28 C1.34157448,28 0,26.6495018 0,25.0035095 L0,2.99649048 Z"/>
    <path stroke="#BCD8DB" d="M1,2.99649048 L1,25.0035095 C1,26.1007585 1.89739545,27 2.99649048,27 L25.0035095,27 C26.1007585,27 27,26.1026046 27,25.0035095 L27,2.99649048 C27,1.89924145 26.1026046,1 25.0035095,1 L2.99649048,1 C1.89924145,1 1,1.89739545 1,2.99649048 Z M0,2.99649048 C0,1.34157448 1.3504982,0 2.99649048,0 L25.0035095,0 C26.6584255,0 28,1.3504982 28,2.99649048 L28,25.0035095 C28,26.6584255 26.6495018,28 25.0035095,28 L2.99649048,28 C1.34157448,28 0,26.6495018 0,25.0035095 L0,2.99649048 Z"/>
  </g>
  <g id="checkbox_error">
    <path fill="#ffffff" d="M0,2.99649048 C0,1.34157448 1.3504982,0 2.99649048,0 L25.0035095,0 C26.6584255,0 28,1.3504982 28,2.99649048 L28,25.0035095 C28,26.6584255 26.6495018,28 25.0035095,28 L2.99649048,28 C1.34157448,28 0,26.6495018 0,25.0035095 L0,2.99649048 Z"/>
    <path stroke="#c5131c" d="M1,2.99649048 L1,25.0035095 C1,26.1007585 1.89739545,27 2.99649048,27 L25.0035095,27 C26.1007585,27 27,26.1026046 27,25.0035095 L27,2.99649048 C27,1.89924145 26.1026046,1 25.0035095,1 L2.99649048,1 C1.89924145,1 1,1.89739545 1,2.99649048 Z M0,2.99649048 C0,1.34157448 1.3504982,0 2.99649048,0 L25.0035095,0 C26.6584255,0 28,1.3504982 28,2.99649048 L28,25.0035095 C28,26.6584255 26.6495018,28 25.0035095,28 L2.99649048,28 C1.34157448,28 0,26.6495018 0,25.0035095 L0,2.99649048 Z"/>
  </g>
  <g id="checkbox_back">
    <path fill="#ffffff" d="M0,2.99649048 C0,1.34157448 1.3504982,0 2.99649048,0 L25.0035095,0 C26.6584255,0 28,1.3504982 28,2.99649048 L28,25.0035095 C28,26.6584255 26.6495018,28 25.0035095,28 L2.99649048,28 C1.34157448,28 0,26.6495018 0,25.0035095 L0,2.99649048 Z"/>
  </g>
  <g id="checkbox_hover">
    <path fill="#fdc129" d="M0,2.99649048 C0,1.34157448 1.3504982,0 2.99649048,0 L25.0035095,0 C26.6584255,0 28,1.3504982 28,2.99649048 L28,25.0035095 C28,26.6584255 26.6495018,28 25.0035095,28 L2.99649048,28 C1.34157448,28 0,26.6495018 0,25.0035095 L0,2.99649048 Z"/>
  </g>
   <g id="checkbox_disabled">
    <path fill="#ece7e2" d="M0,2.99649048 C0,1.34157448 1.3504982,0 2.99649048,0 L25.0035095,0 C26.6584255,0 28,1.3504982 28,2.99649048 L28,25.0035095 C28,26.6584255 26.6495018,28 25.0035095,28 L2.99649048,28 C1.34157448,28 0,26.6495018 0,25.0035095 L0,2.99649048 Z"/>
  </g>
  <g id="checkbox_checked">
    <path fill="#ee7023" d="M0,2.99649048 C0,1.34157448 1.3504982,0 2.99649048,0 L25.0035095,0 C26.6584255,0 28,1.3504982 28,2.99649048 L28,25.0035095 C28,26.6584255 26.6495018,28 25.0035095,28 L2.99649048,28 C1.34157448,28 0,26.6495018 0,25.0035095 L0,2.99649048 Z"/>
  </g>
  <g id="checkbox_tick">
    <path fill="#ffffff" d="M12.942,18.582 C12.553,18.977 11.92,18.977 11.53,18.582 L8,15.006 L9.412,13.575 L12.237,16.436 L18.591,10 L20.003,11.431 L12.942,18.582" id="Fill-5"/>
  </g>
  <g id="checkbox_tick_hover">
    <path fill="#512b2b" d="M12.942,18.582 C12.553,18.977 11.92,18.977 11.53,18.582 L8,15.006 L9.412,13.575 L12.237,16.436 L18.591,10 L20.003,11.431 L12.942,18.582" id="Fill-5"/>
  </g>

  <g id="radio_normal">
        <path stroke="#BCD8DB" fill="#ffffff" stroke-width="2" d="M 1, 14 a 10,10 0 1,1 26,0 a 10,10 0 1,1 -26,0"/>
  </g>
  <g id="radio_error">
        <path stroke="#c5131c" fill="#ffffff" stroke-width="2" d="M 1, 14 a 10,10 0 1,1 26,0 a 10,10 0 1,1 -26,0"/>
  </g>
  <g id="radio_back">
    <path fill="#ffffff" d="M12,28 C21.7319865,28 28,21.7319865 28,14 C28,6.2680135 21.7319865,0 14,0 C11.8508007,0 9.81471224,0.484285129 7.99490702,1.349683 C3.26775807,3.59765141 0,8.41721281 0,14 C0,21.7319865 6.2680135,28 14,28 Z"/>
  </g>
  <g id="radio_hover">
    <path fill="#fdc129" d="M14,28 C21.7319865,28 28,21.7319865 28,14 C28,6.2680135 21.7319865,0 14,0 C11.8508007,0 9.81471224,0.484285129 7.99490702,1.349683 C3.26775807,3.59765141 0,8.41721281 0,14 C0,21.7319865 6.2680135,28 14,28 Z"/>
  </g>
  <g id="radio_disabled">
    <path fill="#ece7e2" d="M14,28 C21.7319865,28 28,21.7319865 28,14 C28,6.2680135 21.7319865,0 14,0 C11.8508007,0 9.81471224,0.484285129 7.99490702,1.349683 C3.26775807,3.59765141 0,8.41721281 0,14 C0,21.7319865 6.2680135,28 14,28 Z"/>
  </g>
  <g id="radio_checked">
    <path fill="#ee7023" d="M14,28 C21.7319865,28 28,21.7319865 28,14 C28,6.2680135 21.7319865,0 14,0 C11.8508007,0 9.81471224,0.484285129 7.99490702,1.349683 C3.26775807,3.59765141 0,8.41721281 0,14 C0,21.7319865 6.2680135,28 14,28 Z"/>
  </g>
  <g id="radio_tick">
    <path fill="#ffffff" d="M14,25 C7.92486775,25 3,20.0751322 3,14 C3,7.92486775 7.92486775,3 14,3 C20.0751322,3 25,7.92486775 25,14 C25,20.0751322 20.0751322,25 14,25 Z M14,23 C18.9705627,23 23,18.9705627 23,14 C23,9.02943725 18.9705627,5 14,5 C9.02943725,5 5,9.02943725 5,14 C5,18.9705627 9.02943725,23 14,23 Z"/>
  </g>
  <g id="radio_tick_hover">
    <path fill="#512b2b" d="M14,25 C7.92486775,25 3,20.0751322 3,14 C3,7.92486775 7.92486775,3 14,3 C20.0751322,3 25,7.92486775 25,14 C25,20.0751322 20.0751322,25 14,25 Z M14,23 C18.9705627,23 23,18.9705627 23,14 C23,9.02943725 18.9705627,5 14,5 C9.02943725,5 5,9.02943725 5,14 C5,18.9705627 9.02943725,23 14,23 Z"/>
  </g>

  <g id="switch_forbidden_unchecked">
   <path d="m23.525 0.43654c7.57 0 13.707 6.126 13.707 13.683 0 7.5567-6.1367 13.683-13.707 13.683h-0.0057v0.03055h-19.051v-0.04581c-7.3955-0.23187-13.272-6.2812-13.276-13.667 0.0077047-7.384 5.8831-13.43 13.276-13.662v-0.0019h0.04973c6.5085 7e-3 13.132 0.0052 19.007-0.01909z" fill="#eaded7"/>
   <ellipse cx="5.2404" cy="14.011" rx="12.728" ry="12.705" fill="#fff" fill-opacity=".94118"/>
   <ellipse cx="5.0844" cy="13.963" rx="10.257" ry="10.239" fill="none" stroke="#eaded7" stroke-width="1.0248"/>
   <path d="m30.807 9.7128-7.9266 8.0221m9.9218-4.1671a5.8612 5.879 0 0 0 -5.8612 -5.879 5.8612 5.879 0 0 0 -5.8612 5.879 5.8612 5.879 0 0 0 5.8612 5.879 5.8612 5.879 0 0 0 5.8612 -5.879z" fill="none" stroke="#c5131c" stroke-width=".97819"/>
  </g>

  <g id="switch_forbidden_checked">
    <path d="m4.6638 0.067798c-7.6395 0-13.833 6.2181-13.833 13.889 0 7.6704 6.1931 13.889 13.833 13.889h0.00589v0.031h19.226v-0.04649c7.4634-0.23536 13.394-6.3757 13.398-13.873-0.007778-7.4951-5.9372-13.632-13.398-13.867v-0.0019375h-0.05017c-6.5683 0.0071016-13.252 0.005263-19.182-0.019376z" fill="#ee7022"/>
    <ellipse cx="23.378" cy="14.009" rx="12.845" ry="12.896" fill="#fff"/>
    <ellipse transform="scale(1,-1)" cx="23.544" cy="-13.96" rx="10.351" ry="10.393" fill="none" stroke="#ee7022" stroke-width="1.0372"/>
    <path d="m5.1171 9.4835-7.9994 8.1428m10.013-4.2297a5.9151 5.9674 0 0 0 -5.9151 -5.9674 5.9151 5.9674 0 0 0 -5.9151 5.9674 5.9151 5.9674 0 0 0 5.9151 5.9674 5.9151 5.9674 0 0 0 5.9151 -5.9674z" fill="none" stroke="#fff" stroke-width=".99004"/>
 </g>

  <g id="dropdown_triangle">
    <path id="dropdown.-traingle" d="m8.7174 15.485h10.804l-5.4022 9.6601z" stroke-width="1.5764"/>
    <path d="m19.632 11.771h-10.804l5.4022-9.6601z" stroke-width="1.5764"/>
  </g>
</svg>